<?xml version="1.0" encoding="utf-8"?>
<!-- Generator: Adobe Illustrator 24.1.2, SVG Export Plug-In . SVG Version: 6.00 Build 0)  -->
<svg version="1.1" id="Layer_1" xmlns="http://www.w3.org/2000/svg" xmlns:xlink="http://www.w3.org/1999/xlink" x="0px" y="0px"
	 viewBox="0 0 502.1 304.6" style="enable-background:new 0 0 502.1 304.6;" xml:space="preserve">
<style type="text/css">
	.st0{fill-rule:evenodd;clip-rule:evenodd;fill:#B07242;}
	.st1{fill-rule:evenodd;clip-rule:evenodd;fill:#FFFFFF;}
	.st2{fill-rule:evenodd;clip-rule:evenodd;fill:#FF8000;}
	.st3{fill-rule:evenodd;clip-rule:evenodd;fill:#6B6D73;}
	.st4{fill-rule:evenodd;clip-rule:evenodd;fill:#052B46;}
	.st5{fill-rule:evenodd;clip-rule:evenodd;fill:#FDD2AF;}
	.st6{fill-rule:evenodd;clip-rule:evenodd;fill:#FACFAD;}
	.st7{fill-rule:evenodd;clip-rule:evenodd;fill:#9B5F3D;}
	.st8{fill-rule:evenodd;clip-rule:evenodd;fill:#4E2915;}
	.st9{fill-rule:evenodd;clip-rule:evenodd;fill:#FFCA00;}
	.st10{fill-rule:evenodd;clip-rule:evenodd;fill:#FFCD06;}
	.st11{fill-rule:evenodd;clip-rule:evenodd;fill:#A43423;}
	.st12{fill-rule:evenodd;clip-rule:evenodd;fill:#BABEC5;}
	.st13{filter:url(#Adobe_OpacityMaskFilter);}
	.st14{mask:url(#mask-2_1_);fill-rule:evenodd;clip-rule:evenodd;fill:#6B6D73;}
	.st15{fill-rule:evenodd;clip-rule:evenodd;fill:#FFFFFF;fill-opacity:0.1;}
	.st16{fill-rule:evenodd;clip-rule:evenodd;fill:#032B46;}
	.st17{filter:url(#Adobe_OpacityMaskFilter_1_);}
	.st18{mask:url(#mask-4_1_);fill-rule:evenodd;clip-rule:evenodd;fill:#BABEC5;}
	.st19{fill-rule:evenodd;clip-rule:evenodd;fill:#08081C;}
	.st20{fill:none;stroke:#1A1718;stroke-width:2.319;stroke-linecap:round;stroke-linejoin:round;}
	.st21{filter:url(#Adobe_OpacityMaskFilter_2_);}
	.st22{mask:url(#mask-6_1_);fill-rule:evenodd;clip-rule:evenodd;fill:#FFCA00;}
	.st23{fill-rule:evenodd;clip-rule:evenodd;fill:#62BB46;}
	.st24{fill-rule:evenodd;clip-rule:evenodd;fill:#0097E6;}
	.st25{fill-rule:evenodd;clip-rule:evenodd;fill:#0077C5;}
	.st26{fill:none;stroke:#1A1718;stroke-width:2.319;}
	.st27{fill-rule:evenodd;clip-rule:evenodd;fill:#9FA1A5;}
	.st28{fill-rule:evenodd;clip-rule:evenodd;fill:none;}
	.st29{filter:url(#Adobe_OpacityMaskFilter_3_);}
	.st30{mask:url(#mask-2_2_);fill-rule:evenodd;clip-rule:evenodd;fill:#6B6D73;}
	.st31{filter:url(#Adobe_OpacityMaskFilter_4_);}
	.st32{mask:url(#mask-4_2_);fill-rule:evenodd;clip-rule:evenodd;fill:#BABEC5;}
	.st33{filter:url(#Adobe_OpacityMaskFilter_5_);}
	.st34{mask:url(#mask-6_2_);fill-rule:evenodd;clip-rule:evenodd;fill:#FFCA00;}
</style>
<g id="Group_1_" transform="translate(929.000000, 102.000000)">
	<g id="Group-120_1_" transform="translate(14.000000, 11.619873)">
		<path id="Fill-1_1_" class="st0" d="M-786.9-18.9c15.7,12.7,24.7,30.9,40.6,26.4c15.9-4.5,33.4-37.6,33.4-37.6l12.5,9.1
			c0,0-5.1,50-44.9,57.4s-49.2-9.4-54.3-20.8C-804.7,4.2-802.4-31.4-786.9-18.9"/>
		<path id="Fill-3_1_" class="st0" d="M-712.9-30.1c0,0,6.3-25,12.5-29.6c6.3-4.5,15.2-5.6,25.6-12.5c5.7,1.1-11.9,12.5-11.9,12.5
			l3.6,5.8c0,0-3.2,11-10.4,17.7c-5,3.7-7,16.1-7,16.1L-712.9-30.1z"/>
		<path id="Fill-5_1_" class="st0" d="M-674.8-72.2c-10.4,7-19.3,8-25.6,12.5c-6.3,4.5-12.5,29.6-12.5,29.6s-17.5,33-33.4,37.6
			c-15.9,4.5-24.9-13.7-40.6-26.4c-15.5-12.5-17.8,23.1-12.7,34.5c5.1,11.4,14.5,28.2,54.3,20.8c38.4-7.1,44.5-53.9,44.9-57.2
			c0.5-2.7,2.6-12.2,6.9-15.3c7.2-6.7,10.4-17.7,10.4-17.7l-3.6-5.8C-686.7-59.7-669.1-71.1-674.8-72.2"/>
		<path id="Fill-7_1_" class="st0" d="M-697.5-44.5c0,0,7.5-1.5,9-6.4c1.5-4.9,4.5-4,5.9-6.4c1.3-2.3,1-4,1-4s-9.5,2.2-13.6,9.5"/>
		<path id="Fill-9_1_" class="st1" d="M-697.5-44.5c0,0,7.5-1.5,9-6.4c1.5-4.9,4.5-4,5.9-6.4c1.3-2.3,1-4,1-4s-9.5,2.2-13.6,9.5"/>
		<path id="Fill-19_1_" class="st4" d="M-592.9,158.6c-16.9,1.8-59.5,27.7-60.3,39.9c-1.6,26.2,53.3,107.8,59.5,110.1
			c6.3,2.3,14.2-32.8,14.2-32.8s-31.6-43.8-27.6-50.1s61.4,0,76.2-31.3C-516.1,163.2-575.8,156.8-592.9,158.6"/>
		<path id="Fill-21_1_" class="st4" d="M-592.9,158.6c-16.9,1.8-59.5,27.7-60.3,39.9c-1.6,26.2,53.3,107.8,59.5,110.1
			c6.3,2.3,14.2-32.8,14.2-32.8s-31.6-43.8-27.6-50.1s61.4,0,76.2-31.3C-516.1,163.2-575.8,156.8-592.9,158.6"/>
		<path id="Fill-23_1_" class="st4" d="M-592.9,158.6c-16.9,1.8-59.5,27.7-60.3,39.9c-1.6,26.2,53.3,107.8,59.5,110.1
			c6.3,2.3,14.2-32.8,14.2-32.8s-31.6-43.8-27.6-50.1s61.4,0,76.2-31.3C-516.1,163.2-575.8,156.8-592.9,158.6"/>
		<path id="Fill-25_1_" class="st5" d="M-574.7,38.7c-16.5-1.9-18.2,47.2-29,59.7c-10.8,12.5,19.3,17.6,26.7,8.5
			C-569.6,97.8-565,39.8-574.7,38.7"/>
		<path id="Fill-27_1_" class="st5" d="M-637.9,102.1c19.1,1,33.8-2.3,38.5-6.7c4.7-4.4,22.1-2,24.8,7.4c2.7,9.4-10,18.8-15.7,19.8
			c-5.7,1-39.2-7-47.5-11.7C-646.3,106.2-637.9,102.1-637.9,102.1"/>
		<path id="Fill-29_1_" class="st6" d="M-574.8,102.5c6-16.3,8.7-62.8,0.1-63.8c-16.3-1.9-18.2,46-28.6,59.2
			c-6.8,3.1-19.3,5.1-34.6,4.3c0,0-8.4,4,0,8.7c8.4,4.7,41.9,12.7,47.5,11.7c5.7-1,18.4-10.4,15.7-19.8
			C-574.7,102.7-574.7,102.6-574.8,102.5"/>
		<path id="Fill-31_1_" class="st7" d="M-574.8,102.5c6-16.3,8.7-62.8,0.1-63.8c-16.3-1.9-18.2,46-28.6,59.2
			c-6.8,3.1-19.3,5.1-34.6,4.3c0,0-8.4,4,0,8.7c8.4,4.7,41.9,12.7,47.5,11.7c5.7-1,18.4-10.4,15.7-19.8
			C-574.7,102.7-574.7,102.6-574.8,102.5"/>
		<path id="Fill-33_1_" class="st8" d="M-817-79.3c-12.1-13.6-37.9-7.4-43.3,17c-4.1,18.4-39.7,21.9-37,41.3
			C-894,2.6-829,6.7-823-11S-817-79.3-817-79.3"/>
		<polygon id="Fill-35_1_" class="st9" points="-815.9,-50.5 -806.9,-42.1 -811.3,-32.6 		"/>
		<path id="Fill-39_1_" class="st10" d="M-797.1,116.6c9.1,23.3,14.3,22.3,14.3,34.5c0,6-32.1,52.2-32.1,52.2s9.4,18.1,33.5,31.5
			c0,0,46.9-61.3,48.7-77.5c2.4-22.1-27.3-67.4-27.3-67.4L-797.1,116.6z"/>
		<path id="Fill-41_1_" class="st11" d="M-797.6,116.6c9.1,23.3,14.3,22.3,14.3,34.5c0,6-32.1,52.2-32.1,52.2s9.4,18.1,33.5,31.5
			c0,0,46.9-61.3,48.7-77.5c2.4-22.1-27.3-67.4-27.3-67.4L-797.6,116.6z"/>
		<path id="Fill-43_1_" class="st9" d="M-793-23.5c22.7,3.9,29.4,28.4,41.1,27.9c11.7-0.5,14.7-5.6,14.7-5.6l9.7,54
			c0,0-22.9,5.4-53.9-14.9C-812.3,17.6-819.4-28.1-793-23.5"/>
		<path id="Fill-45_1_" class="st9" d="M-781.6-19.3c-3.3-1.9-7.1-3.4-11.4-4.2c-26.4-4.6-19.3,41.1,11.7,61.4
			c14.8,9.7,27.3,14.4,36.9,12.2L-781.6-19.3z"/>
		<path id="Fill-47_1_" class="st12" d="M-597.5,82.7c6.3,7.6,22.3,12.7,31.7,14.3c2.7-19.8-2.5-57.6-8.9-58.3
			C-585.6,37.4-592.7,64.7-597.5,82.7"/>
		<path id="Fill-52_1_" class="st0" d="M-846.8-63.3c2.3-24.9,34-18.8,36.3-1.5c1.1,8.4,0,16.2-3.9,22.9c-3.2,5.4,1.5,11,2.6,13.6
			c2.3,5.1,10.2-1.1,11.9,5.1c1.7,6.3,4.4,36.7-11.5,40.1c-15.9,3.4-40.8-11.1-43.1-27L-842-21C-842-21-849.1-38.5-846.8-63.3"/>
		<path id="Fill-54_1_" class="st11" d="M-830.6,121.1c-7.6,14.3,24.7,45,37.1,94.9c10.3,41.3,5.8,61.8,33,79.2l43.6-8.1
			c0,0-23.9-20.4-32.7-88.3c-5.1-39.1-27.7-73.7-32.3-84.3C-792,91.2-816.4,94.4-830.6,121.1"/>
		<path id="Fill-56_1_" class="st15" d="M-830.6,121.1c-7.6,14.3,24.7,45,37.1,94.9c10.3,41.3,5.8,61.8,33,79.2l43.6-8.1
			c0,0-23.9-20.4-32.7-88.3c-5.1-39.1-27.7-73.7-32.3-84.3C-792,91.2-816.4,94.4-830.6,121.1"/>
		<path id="Fill-58_1_" class="st9" d="M-758,91.2c-2-11.7-19.3-33-13.2-66.5c1.5-8.4-3.8-31-15.2-43.6c-7.6-8.4-21.2-9.6-25.7-10.1
			c0.1,0.2,0.1,0.4,0.2,0.6c9.8,20.1,3.1,40.6,3.1,40.6c-10.7-16.5-30.1-26.3-34.3-32.4c-5.9,3.7-11.9,8.6-17.8,14.6
			c-14.7,15-17,34.4-2.3,68.5c9.6,22.2,23.2,33,20.9,63.2c0,0,36,7.6,63.3-7.2C-751.5,104.1-756.7,98.8-758,91.2"/>
		<path id="Fill-60_1_" class="st9" d="M-820.6,128c-3.4-25-18.3-44.9-16.4-67.4c2.3-27.4-3.2-53.1-12.8-60.5
			c-5.9-4.5-23,20.1-23,20.1c-0.2,2.8-0.2,5.7,0.1,8.9l0,0c0.1,1.5,0.3,3.1,0.6,4.7c0,0.1,0,0.1,0,0.2c0.2,1.5,0.6,3.1,0.9,4.7
			c0,0.1,0.1,0.3,0.1,0.4c0.3,1.5,0.8,3.1,1.2,4.7c0.1,0.2,0.1,0.5,0.2,0.7c0.4,1.5,0.9,3.1,1.5,4.7c0.1,0.3,0.2,0.7,0.3,1
			c0.5,1.6,1.1,3.2,1.7,4.8c0.2,0.4,0.3,0.8,0.5,1.2c0.8,2.1,1.7,4.2,2.6,6.3c1.8,4.2,3.7,7.9,5.7,11.5c1.3,2.4,2.6,4.7,3.9,6.9
			c2.5,4.5,4.9,8.9,6.9,13.7c1,2.4,1.8,4.9,2.6,7.5c1.8,6.6,2.6,14.1,1.9,23.6C-842.1,126-833,127.9-820.6,128"/>
		<path id="Fill-62_1_" class="st0" d="M-839.8,153.4c0.7,2.6,6.7,12.4,2.6,23.9c-4.4,12.3-12.1,15.1-13.1,13.5
			c-0.9-1.7,3.8-11.3,2.1-16.3c-1.3,7.4-3.8,11-3.8,11c-0.2-2.1,1.1-7.5,0.8-12.9c-0.3-6.2,1.4-15.7,3.1-18.1
			C-846.3,152.1-840.5,150.8-839.8,153.4"/>
		<path id="Fill-64_1_" class="st4" d="M-546.8,174.6c-30.8,5.6-63.1,20.5-79,50.6c-15.9,30.1-22.7,106.9-26.7,110.3
			c-4,3.4,25.1-9.8,32.5-14.4c7.4-4.5,14.7-73.8,27.7-82.3c13.1-8.5,61.8,7.2,80-9.8c18.2-17.1,16.7-40.2,12.7-48.7
			C-503.6,171.7-534.3,172.3-546.8,174.6"/>
		<path id="Fill-66_1_" class="st16" d="M-524.1,173.2c3.1,23.8-11.1,33.6-18.1,36.8c-7.4,3.3-51.6,14.7-59.6,20.8
			c-6.4,4.8-11.6,61.8-18.3,89.1c9.3-18.3,16.2-73.4,27.7-81c13.1-8.5,61.8,7.2,80-9.8c18.2-17.1,16.7-40.2,12.7-48.7
			C-501.9,175.4-512.8,173.5-524.1,173.2"/>
		<path id="Fill-68_1_" class="st7" d="M-550.4-23.4c6.5-6.8,27.4-9.5,28.2,8.4c0.8,17.9-4.9,19-0.8,31.2
			c4.2,12.2,9.9,13.7,14.1,24.4c4.2,10.7-13.3,19-31.6,18.7c-18.3-0.4-35.4-18.3-28.2-25.1c7.2-6.9,14.2-8.6,19.7-15.8
			c0,0-6.3-2.7-7.1-10.6C-557-0.7-556.5-20.1-550.4-23.4"/>
		<path id="Fill-70_1_" class="st12" d="M-493.1,49.1c-7.5-9.1-19.7-16.2-24.3-22.5c-3,8.6-12.2,18-25,15.6
			c-13.8-2.6-15.2-11.9-15.5-18c-4.2,4.6-13.7,3.5-22.4,16.1c-15.4,22.2,10.2,77.5,8.5,92.3c-1.7,14.8-24.5,9.1-22.2,23.9
			c2.3,14.8,80.7,59.1,94.4,23.9C-486,145-477.1,68.4-493.1,49.1"/>
		<path id="Fill-72_1_" class="st12" d="M-527.9,156.8c2.5,7.9-14.5,22.1-24.6,29.7c22,9,45.8,11.7,52.8-6.3
			c12.4-32,20.8-98.2,10.3-124.5l-21.4-11.2C-532.1,58.8-531.4,145.7-527.9,156.8"/>
		<path id="Fill-74_1_" class="st7" d="M-489.4,54.6c-12.5-17.1-21.6-10.8-23.3,0c-4.4,27.7,9.1,63.6,9.1,63.6s-45.7-16.8-55.4-17.4
			c-9.7-0.6-32.7,11.7-35.5,13.9c-0.7,0.5-0.2,1.3,3.1,0.4l-4.2,2.3c0,0,0.6,2.8,5.3,0.9c0,0,1.9,1.8,3.5,1.5
			c3.5-0.7,9-4.7,11.3-6.7l-7.1,9.7c2.1,0.6,7.1-2.8,10.7-6.2c11.2,2.2,16.4-3.7,16.4-3.7s43.9,37.9,63.8,31.4
			C-458.6,133.7-476.9,71.6-489.4,54.6"/>
		<g id="Group-78_1_" transform="translate(208.968439, 77.910296)">
			<defs>
				<filter id="Adobe_OpacityMaskFilter" filterUnits="userSpaceOnUse" x="-726.3" y="-36" width="45.3" height="65">
					<feColorMatrix  type="matrix" values="1 0 0 0 0  0 1 0 0 0  0 0 1 0 0  0 0 0 1 0"/>
				</filter>
			</defs>
			<mask maskUnits="userSpaceOnUse" x="-726.3" y="-36" width="45.3" height="65" id="mask-4_2_">
				<g class="st13">
					<polygon id="path-3_2_" class="st1" points="-726.3,-36 -681,-36 -681,29 -726.3,29 					"/>
				</g>
			</mask>
			<path id="Fill-76_1_" class="st32" d="M-681,24.7c-1.8-19.6-10.9-43.1-21.8-53.8c-15.1-14.8-25-3.3-23.3,9.6
				c2.3,17.7,6.3,37.1,7.9,46.8C-710.7,30.1-692.6,29.4-681,24.7"/>
		</g>
		<path id="Fill-79_1_" class="st19" d="M-526.2-24.9c-4.1-4.4-9.2-4-14.8-3.5c-5.1,0.4-9.6,5-9.5,5.2c0.3,0.9,3.6,1.6,11.4,1.6
			C-526.9-21.6-525.3-23.6-526.2-24.9"/>
		<path id="Fill-81_1_" class="st19" d="M-526.2-24.9c0,0,5.7,3.4,4.9,12.8c-0.8,9.3-3,10.7-3,10.7s-1-10.4-6-14.4
			C-535.2-19.9-528.1-26.2-526.2-24.9"/>
		<path id="Stroke-85_1_" class="st20" d="M-560.6-12.8l14.3,2.7c0,0,0.6,9.3-5.8,9.6c-6.5,0.4-5.6-10.7-5.6-10.7"/>
		<path id="Fill-91_1_" class="st0" d="M-867.4,0.4c-25.1,25.1-28.2,65.3-14.3,104.8c10.4,29.5,26.9,26.6,33.3,57
			c7.4,6.3,5.7,9.6,8.4-1.8c2.7-11.4-16.1-61.3-24.5-81.7c-1.5-29.9,16.6-49.1,17.2-57.1C-845.3-2-860-7-867.4,0.4"/>
		<g id="Group-95_1_" transform="translate(0.000000, 51.711268)">
			<defs>
				<filter id="Adobe_OpacityMaskFilter_1_" filterUnits="userSpaceOnUse" x="-905.1" y="-58.4" width="61.3" height="125.6">
					<feColorMatrix  type="matrix" values="1 0 0 0 0  0 1 0 0 0  0 0 1 0 0  0 0 0 1 0"/>
				</filter>
			</defs>
			<mask maskUnits="userSpaceOnUse" x="-905.1" y="-58.4" width="61.3" height="125.6" id="mask-6_2_">
				<g class="st17">
					<polygon id="path-5_2_" class="st1" points="-905.1,-58.4 -843.8,-58.4 -843.8,67.2 -905.1,67.2 					"/>
				</g>
			</mask>
			<path id="Fill-93_1_" class="st34" d="M-869.4-52.5c19.1-16.6,26.1,5,25.6,24.1c-0.5,19.1-15.8,21.6-19.3,41.4
				c-3.6,19.8,15.8,44,15.2,45.3c-0.6,1.3-57.1,8.9-57.1,8.9S-904.9-21.5-869.4-52.5"/>
		</g>
		<path id="Fill-96_1_" class="st8" d="M-841.3-74c13.4-9.4,21.9,10.7,31.8,12.9c0,0-1.1-23-19.2-23.5c-18-0.5-22.7,9.3-19.9,28.6
			C-848.6-56-845.2-71.2-841.3-74"/>
		<path id="Fill-98_1_" class="st0" d="M-841.5-53.2c0,3.5-2.9,6.3-6.5,6.3c-3.6,0-6.5-2.8-6.5-6.3c0-3.5,2.9-6.3,6.5-6.3
			C-844.4-59.5-841.5-56.7-841.5-53.2"/>
		<polygon id="Fill-100_1_" class="st9" points="-848.6,-50.9 -850.6,-35.2 -841.2,-29.3 		"/>
		<path id="Fill-102_1_" class="st23" d="M-639.7-60l-24.8,6.6l-3.1-39.4l37.7-10l2,26C-627.1-69.1-632.2-62-639.7-60"/>
		<path id="Fill-104_1_" class="st12" d="M-609.2-19.9l-22.1,5.9c-6.5,1.7-12.9-2.8-13.4-9.5l-1.8-23.3L-612-56L-609.2-19.9z"/>
		<path id="Fill-106_1_" class="st12" d="M-654.5-0.5l-9.6,2.5c-6.5,1.7-12.9-2.8-13.4-9.5l-0.8-10.2l22-5.8L-654.5-0.5z"/>
		<path id="Fill-108_1_" class="st12" d="M-603.1-67.4l-13.4,3.5l-1.8-23l22-5.8l1.1,14.1C-594.7-73.4-598.1-68.7-603.1-67.4"/>
		<path id="Fill-110_1_" class="st23" d="M-627.2,25.1l-16.6,4.4l-2.4-30.8l29.5-7.8l1.4,17.5C-614.7,16.1-619.7,23.1-627.2,25.1"/>
		<path id="Stroke-112_1_" class="st20" d="M-522.7-7.8l-16.1-1.8c0,0-1.9,10.1,4,11c5.9,1,8.5-9.2,8.5-9.2"/>
		<path id="Stroke-114_1_" class="st26" d="M-546.2-8.2c0,0,3.6-2.4,6.9,0.5"/>
		<polygon id="Fill-116_1_" class="st3" points="-683,103.8 -698.1,37.4 -624.2,59.1 -612.2,117.7 -577,129.6 -579.8,138.2 		"/>
		<path class="st27" d="M-649.6,87c-0.9,0.5-2.1,0.9-3.4,0.9c-4.4,0-8.9-3.4-10.1-7.7c-1.2-4,1.3-7.7,5.6-7.7c3.2,0,6.6,1.9,8.6,4.6
			C-651.8,78.6-652.3,84.9-649.6,87z"/>
	</g>
</g>
<path class="st28" d="M299.3,197.6c-0.4,1-1,2.1-1.9,2.8c-0.9,0.7-2.1,1.1-3.1,0.7c-0.3-0.1-0.6-0.3-0.9-0.5
	c2.2-1.3,3.1-3.9,2.3-6.9c-0.3-1.1-0.9-2.1-1.6-3.1c0.1,0,0.1-0.1,0.1-0.1c1.4-0.7,3.1-0.3,4.3,0.8
	C300.3,193,300.2,195.5,299.3,197.6z"/>
<path class="st27" d="M286.2,182.8c0.3-0.5,0.6-0.9,1.2-1.2c0.6-0.3,1.3-0.8,1.6-0.6c0.7,0.9,0.8,2.2,0.2,3.2
	c-0.6,0.9-1.6,1.4-2.5,1.1C286,185,285.6,183.8,286.2,182.8z"/>
</svg>
