<?xml version="1.0" encoding="utf-8"?>
<!-- Generator: Adobe Illustrator 24.1.2, SVG Export Plug-In . SVG Version: 6.00 Build 0)  -->
<svg version="1.1" id="Layer_1" xmlns="http://www.w3.org/2000/svg" xmlns:xlink="http://www.w3.org/1999/xlink" x="0px" y="0px"
	 viewBox="0 0 502.1 304.6" style="enable-background:new 0 0 502.1 304.6;" xml:space="preserve">
<style type="text/css">
	.st0{fill-rule:evenodd;clip-rule:evenodd;fill:#B07242;}
	.st1{fill-rule:evenodd;clip-rule:evenodd;fill:#FF8000;}
	.st2{fill-rule:evenodd;clip-rule:evenodd;fill:#6B6D73;}
	.st3{fill-rule:evenodd;clip-rule:evenodd;fill:#052B46;}
	.st4{fill-rule:evenodd;clip-rule:evenodd;fill:#FDD2AF;}
	.st5{fill-rule:evenodd;clip-rule:evenodd;fill:#FACFAD;}
	.st6{fill-rule:evenodd;clip-rule:evenodd;fill:#9B5F3D;}
	.st7{fill-rule:evenodd;clip-rule:evenodd;fill:#4E2915;}
	.st8{fill-rule:evenodd;clip-rule:evenodd;fill:#FFCA00;}
	.st9{fill-rule:evenodd;clip-rule:evenodd;fill:#FFCD06;}
	.st10{fill-rule:evenodd;clip-rule:evenodd;fill:#A43423;}
	.st11{fill-rule:evenodd;clip-rule:evenodd;fill:#BABEC5;}
	.st12{filter:url(#Adobe_OpacityMaskFilter);}
	.st13{fill-rule:evenodd;clip-rule:evenodd;fill:#FFFFFF;}
	.st14{mask:url(#mask-2_2_);fill-rule:evenodd;clip-rule:evenodd;fill:#6B6D73;}
	.st15{opacity:0.1;fill-rule:evenodd;clip-rule:evenodd;fill:#FFFFFF;}
	.st16{fill-rule:evenodd;clip-rule:evenodd;fill:#032B46;}
	.st17{filter:url(#Adobe_OpacityMaskFilter_1_);}
	.st18{mask:url(#mask-4_2_);fill-rule:evenodd;clip-rule:evenodd;fill:#BABEC5;}
	.st19{fill-rule:evenodd;clip-rule:evenodd;fill:#08081C;}
	.st20{fill:none;stroke:#1A1718;stroke-width:2.319;stroke-linecap:round;stroke-linejoin:round;}
	.st21{filter:url(#Adobe_OpacityMaskFilter_2_);}
	.st22{mask:url(#mask-6_2_);fill-rule:evenodd;clip-rule:evenodd;fill:#FFCA00;}
	.st23{fill-rule:evenodd;clip-rule:evenodd;fill:#62BB46;}
	.st24{fill:none;stroke:#1A1718;stroke-width:2.319;}
	.st25{fill-rule:evenodd;clip-rule:evenodd;fill:#9FA1A5;}
	.st26{fill-rule:evenodd;clip-rule:evenodd;fill:none;}
</style>
<desc>Created with Sketch.</desc>
<path id="Fill-1_1_" class="st0" d="M156.1,94.7c15.7,12.7,24.7,30.9,40.6,26.4c15.9-4.5,33.4-37.6,33.4-37.6l12.5,9.1
	c0,0-5.1,50-44.9,57.4s-49.2-9.4-54.3-20.8C138.3,117.8,140.6,82.2,156.1,94.7"/>
<path class="st0" d="M268.2,41.4c-10.4,7-19.3,8-25.6,12.5c-6.3,4.5-12.5,29.6-12.5,29.6l12.3,10.1c0,0,2-12.4,7-16.1
	c7.2-6.7,10.4-17.7,10.4-17.7l-1.1-1.8c-1.4,0.8-3.2,1.5-4.2,4.8c-1.5,4.9-9,6.4-9,6.4c0.6-1.9,2.3-7.2,2.3-7.2c2.1-3.8,8.5-8,8.5-8
	S273.9,42.5,268.2,41.4z"/>
<path id="Fill-11_1_" class="st0" d="M164.9,338.1c-11.2,9.4-19.2,25.7-19.2,25.7s8.5,17.9,11.8,28.6c1.1,3.5-30.7-25.2-26.4-31.1
	c8.8-12,19.7-38.9,19.7-38.9L164.9,338.1z"/>
<path id="Fill-13_1_" class="st0" d="M164.9,338.1c-11.2,9.4-19.2,25.7-19.2,25.7s8.5,17.9,11.8,28.6c1.1,3.5-30.7-25.2-26.4-31.1
	c8.8-12,19.7-38.9,19.7-38.9L164.9,338.1z"/>
<path id="Fill-15_1_" class="st1" d="M132.5,358.2c0,0,13.2,28.3,22.8,28.1c0,0,4.2,13.4,8,16.7l-3.8,0.9c0,0-13.2-4.7-22.5-25.2
	c-4.6-10.1-7.6-2.7-7.6-2.7l-4-3.8C125.4,372.2,128.1,358.6,132.5,358.2"/>
<path id="Fill-17_1_" class="st2" d="M351.5,396.3c0,0-9.7,66.1-1.4,67.5c8.3,1.4,24.2-47.5,26.8-57.1c2.6-9.6-17.8-20.8-17.8-20.8
	L351.5,396.3z"/>
<path id="Fill-19_1_" class="st3" d="M350.1,272.3c-16.9,1.8-59.5,27.7-60.3,39.9c-1.6,26.2,53.3,107.8,59.5,110.1
	c6.3,2.3,14.2-32.8,14.2-32.8s-31.6-43.8-27.6-50.1c4-6.3,61.4,0,76.2-31.3C426.9,276.8,367.2,270.4,350.1,272.3"/>
<path id="Fill-21_1_" class="st3" d="M350.1,272.3c-16.9,1.8-59.5,27.7-60.3,39.9c-1.6,26.2,53.3,107.8,59.5,110.1
	c6.3,2.3,14.2-32.8,14.2-32.8s-31.6-43.8-27.6-50.1c4-6.3,61.4,0,76.2-31.3C426.9,276.8,367.2,270.4,350.1,272.3"/>
<path id="Fill-23_1_" class="st3" d="M350.1,272.3c-16.9,1.8-59.5,27.7-60.3,39.9c-1.6,26.2,53.3,107.8,59.5,110.1
	c6.3,2.3,14.2-32.8,14.2-32.8s-31.6-43.8-27.6-50.1c4-6.3,61.4,0,76.2-31.3C426.9,276.8,367.2,270.4,350.1,272.3"/>
<path id="Fill-25_1_" class="st4" d="M368.3,152.3c-16.5-1.9-18.2,47.2-29,59.7c-10.8,12.5,19.3,17.6,26.7,8.5
	C373.4,211.4,378,153.4,368.3,152.3"/>
<path id="Fill-27_1_" class="st4" d="M305.1,215.8c19.1,1,33.8-2.3,38.5-6.7c4.7-4.4,22.1-2,24.8,7.4c2.7,9.4-10,18.8-15.7,19.8
	c-5.7,1-39.2-7-47.5-11.7C296.7,219.8,305.1,215.8,305.1,215.8"/>
<path id="Fill-29_1_" class="st5" d="M368.2,216.1c6-16.3,8.7-62.8,0.1-63.8c-16.3-1.9-18.2,46-28.6,59.2
	c-6.8,3.1-19.3,5.1-34.6,4.3c0,0-8.4,4,0,8.7c8.4,4.7,41.9,12.7,47.5,11.7c5.7-1,18.4-10.4,15.7-19.8
	C368.3,216.3,368.3,216.2,368.2,216.1"/>
<path id="Fill-31_1_" class="st6" d="M368.2,216.1c6-16.3,8.7-62.8,0.1-63.8c-16.3-1.9-18.2,46-28.6,59.2
	c-6.8,3.1-19.3,5.1-34.6,4.3c0,0-8.4,4,0,8.7c8.4,4.7,41.9,12.7,47.5,11.7c5.7-1,18.4-10.4,15.7-19.8
	C368.3,216.3,368.3,216.2,368.2,216.1"/>
<path id="Fill-33_1_" class="st7" d="M126,34.3c-12.1-13.6-37.9-7.4-43.3,17c-4.1,18.4-39.7,21.9-37,41.3
	c3.3,23.6,68.3,27.8,74.3,10C126.1,84.9,126,34.3,126,34.3"/>
<polygon id="Fill-35_1_" class="st8" points="127.1,63.1 136.1,71.5 131.7,81 "/>
<path id="Fill-37_1_" class="st0" d="M208,400.9c0,0,6.1,6.9,11,17.5c5,10.8,23.8,13.5,28.9,13.7c10,0.5,8.9-4.1,8.9-4.1
	s-19.5-11.2-24.3-16.3c-4.8-5.1-10.5-15.4-10.5-15.4L208,400.9z"/>
<path id="Fill-39_1_" class="st9" d="M145.9,230.2c9.1,23.3,14.3,22.3,14.3,34.5c0,6-32.1,52.2-32.1,52.2s9.4,18.1,33.5,31.5
	c0,0,46.9-61.3,48.7-77.5c2.4-22.1-27.3-67.4-27.3-67.4L145.9,230.2z"/>
<path id="Fill-41_1_" class="st10" d="M145.4,230.2c9.1,23.3,14.3,22.3,14.3,34.5c0,6-32.1,52.2-32.1,52.2s9.4,18.1,33.5,31.5
	c0,0,46.9-61.3,48.7-77.5c2.4-22.1-27.3-67.4-27.3-67.4L145.4,230.2z"/>
<path id="Fill-43_1_" class="st8" d="M150,90.1c22.7,3.9,29.4,28.4,41.1,27.9c11.7-0.5,14.7-5.6,14.7-5.6l9.7,54
	c0,0-22.9,5.4-53.9-14.9S123.6,85.6,150,90.1"/>
<path id="Fill-45_1_" class="st8" d="M161.4,94.3c-3.3-1.9-7.1-3.4-11.4-4.2c-26.4-4.6-19.3,41.1,11.7,61.4
	c14.8,9.7,27.3,14.4,36.9,12.2L161.4,94.3z"/>
<path id="Fill-47_1_" class="st11" d="M345.5,196.3c6.3,7.6,22.3,12.7,31.7,14.3c2.7-19.8-2.5-57.6-8.9-58.3
	C357.4,151,350.3,178.4,345.5,196.3"/>
<g id="Group-51_1_" transform="translate(119.766986, 232.609320)">
	<g id="Clip-50_1_">
	</g>
	<defs>
		<filter id="Adobe_OpacityMaskFilter" filterUnits="userSpaceOnUse" x="140.1" y="209.5" width="55.8" height="59.5">
			<feColorMatrix  type="matrix" values="1 0 0 0 0  0 1 0 0 0  0 0 1 0 0  0 0 0 1 0"/>
		</filter>
	</defs>
	<mask maskUnits="userSpaceOnUse" x="140.1" y="209.5" width="55.8" height="59.5" id="mask-2_2_">
		<g class="st12">
			<polygon id="path-1_2_" class="st13" points="140.1,209.5 195.9,209.5 195.9,269 140.1,269 			"/>
		</g>
	</mask>
	<path id="Fill-49_1_" class="st14" d="M174.9,214c0,0-42.5,50.4-33.5,54.7c9,4.3,53.1-36.2,54.4-43.3c1.3-7.1-7-18-10.7-15.4
		C181.3,212.5,174.9,214,174.9,214"/>
</g>
<path id="Fill-52_1_" class="st0" d="M96.2,50.3c2.3-24.9,34-18.8,36.3-1.5c1.1,8.4,0,16.2-3.9,22.9c-3.2,5.4,1.5,11,2.6,13.6
	c2.3,5.1,10.2-1.1,11.9,5.1c1.7,6.3,4.4,36.7-11.5,40.1c-15.9,3.4-40.8-11.1-43.1-27L101,92.6C101,92.6,93.9,75.1,96.2,50.3"/>
<path id="Fill-54_1_" class="st10" d="M112.4,234.7c-7.6,14.3,24.7,45,37.1,94.9c10.3,41.3,5.8,61.8,33,79.2l43.6-8.1
	c0,0-23.9-20.4-32.7-88.3c-5.1-39.1-27.7-73.7-32.3-84.3C151,204.8,126.6,208,112.4,234.7"/>
<path id="Fill-56_1_" class="st15" d="M112.4,234.7c-7.6,14.3,24.7,45,37.1,94.9c10.3,41.3,5.8,61.8,33,79.2l43.6-8.1
	c0,0-23.9-20.4-32.7-88.3c-5.1-39.1-27.7-73.7-32.3-84.3C151,204.8,126.6,208,112.4,234.7"/>
<path id="Fill-58_1_" class="st8" d="M185,204.8c-2-11.7-19.3-33-13.2-66.5c1.5-8.4-3.8-31-15.2-43.6c-7.6-8.4-21.2-9.6-25.7-10.1
	c0.1,0.2,0.1,0.4,0.2,0.6c9.8,20.1,3.1,40.6,3.1,40.6c-10.7-16.5-30.1-26.3-34.3-32.4c-5.9,3.7-11.9,8.6-17.8,14.6
	c-14.7,15-17,34.4-2.3,68.5c9.6,22.2,23.2,33,20.9,63.2c0,0,36,7.6,63.3-7.2C191.5,217.7,186.3,212.4,185,204.8"/>
<path id="Fill-60_1_" class="st8" d="M122.4,241.6c-3.4-25-18.3-44.9-16.4-67.4c2.3-27.4-3.2-53.1-12.8-60.5
	c-5.9-4.5-23,20.1-23,20.1c-0.2,2.8-0.2,5.7,0.1,8.9l0,0c0.1,1.5,0.3,3.1,0.6,4.7c0,0.1,0,0.1,0,0.2c0.2,1.5,0.6,3.1,0.9,4.7
	c0,0.1,0.1,0.3,0.1,0.4c0.3,1.5,0.8,3.1,1.2,4.7c0.1,0.2,0.1,0.5,0.2,0.7c0.4,1.5,0.9,3.1,1.5,4.7c0.1,0.3,0.2,0.7,0.3,1
	c0.5,1.6,1.1,3.2,1.7,4.8c0.2,0.4,0.3,0.8,0.5,1.2c0.8,2.1,1.7,4.2,2.6,6.3c1.8,4.2,3.7,7.9,5.7,11.5c1.3,2.4,2.6,4.7,3.9,6.9
	c2.5,4.5,4.9,8.9,6.9,13.7c1,2.4,1.8,4.9,2.6,7.5c1.8,6.6,2.6,14.1,1.9,23.6C100.9,239.6,110,241.6,122.4,241.6"/>
<path id="Fill-62_1_" class="st0" d="M103.2,267c0.7,2.6,6.7,12.4,2.6,23.9c-4.4,12.3-12.1,15.1-13.1,13.5
	c-0.9-1.7,3.8-11.3,2.1-16.3c-1.3,7.4-3.8,11-3.8,11c-0.2-2.1,1.1-7.5,0.8-12.9c-0.3-6.2,1.4-15.7,3.1-18.1S102.5,264.4,103.2,267"
	/>
<path id="Fill-64_1_" class="st3" d="M396.2,288.2c-30.8,5.6-63.1,20.5-79,50.6c-15.9,30.1-22.7,106.9-26.7,110.3
	c-4,3.4,25.1-9.8,32.5-14.4c7.4-4.5,14.7-73.8,27.7-82.3c13.1-8.5,61.8,7.2,80-9.8c18.2-17.1,16.7-40.2,12.7-48.7
	C439.4,285.3,408.7,285.9,396.2,288.2"/>
<path id="Fill-66_1_" class="st16" d="M418.9,286.8c3.1,23.8-11.1,33.6-18.1,36.8c-7.4,3.3-51.6,14.7-59.6,20.8
	c-6.4,4.8-11.6,61.8-18.3,89.1c9.3-18.3,16.2-73.4,27.7-81c13.1-8.5,61.8,7.2,80-9.8c18.2-17.1,16.7-40.2,12.7-48.7
	C441.1,289,430.2,287.1,418.9,286.8"/>
<path id="Fill-68_1_" class="st6" d="M392.6,90.2c6.5-6.8,27.4-9.5,28.2,8.4c0.8,17.9-4.9,19-0.8,31.2c4.2,12.2,9.9,13.7,14.1,24.4
	c4.2,10.7-13.3,19-31.6,18.7c-18.3-0.4-35.4-18.3-28.2-25.1c7.2-6.9,14.2-8.6,19.7-15.8c0,0-6.3-2.7-7.1-10.6
	C386,113,386.5,93.6,392.6,90.2"/>
<path id="Fill-70_1_" class="st11" d="M449.9,162.7c-7.5-9.1-19.7-16.2-24.3-22.5c-3,8.6-12.2,18-25,15.6
	c-13.8-2.6-15.2-11.9-15.5-18c-4.2,4.6-13.7,3.5-22.4,16.1c-15.4,22.2,10.2,77.5,8.5,92.3c-1.7,14.8-24.5,9.1-22.2,23.9
	c2.3,14.8,80.7,59.1,94.4,23.9C457,258.6,465.9,182,449.9,162.7"/>
<path id="Fill-72_1_" class="st11" d="M415.1,270.5c2.5,7.9-14.5,22.1-24.6,29.7c22,9,45.8,11.7,52.8-6.3
	c12.4-32,20.8-98.2,10.3-124.5l-21.4-11.2C410.9,172.5,411.6,259.3,415.1,270.5"/>
<path id="Fill-74_1_" class="st6" d="M453.6,168.2c-12.5-17.1-21.6-10.8-23.3,0c-4.4,27.7,9.1,63.6,9.1,63.6S393.7,215,384,214.5
	s-32.7,11.7-35.5,13.9c-0.7,0.5-0.2,1.3,3.1,0.4l-4.2,2.3c0,0,0.6,2.8,5.3,0.9c0,0,1.9,1.8,3.5,1.5c3.5-0.7,9-4.7,11.3-6.7l-7.1,9.7
	c2.1,0.6,7.1-2.8,10.7-6.2c11.2,2.2,16.4-3.7,16.4-3.7s43.9,37.9,63.8,31.4C484.4,247.3,466.1,185.3,453.6,168.2"/>
<g id="Group-78_1_" transform="translate(208.968439, 77.910296)">
	<g id="Clip-77_1_">
	</g>
	<defs>
		<filter id="Adobe_OpacityMaskFilter_1_" filterUnits="userSpaceOnUse" x="216.7" y="77.6" width="45.3" height="65">
			<feColorMatrix  type="matrix" values="1 0 0 0 0  0 1 0 0 0  0 0 1 0 0  0 0 0 1 0"/>
		</filter>
	</defs>
	<mask maskUnits="userSpaceOnUse" x="216.7" y="77.6" width="45.3" height="65" id="mask-4_2_">
		<g class="st17">
			<polygon id="path-3_2_" class="st13" points="216.7,77.6 262,77.6 262,142.6 216.7,142.6 			"/>
		</g>
	</mask>
	<path id="Fill-76_1_" class="st18" d="M262,138.3c-1.8-19.6-10.9-43.1-21.8-53.8c-15.1-14.8-25-3.3-23.3,9.6
		c2.3,17.7,6.3,37.1,7.9,46.8C232.3,143.8,250.4,143,262,138.3"/>
</g>
<path id="Fill-79_1_" class="st19" d="M416.8,88.7c-4.1-4.4-9.2-4-14.8-3.5c-5.1,0.4-9.6,5-9.5,5.2c0.3,0.9,3.6,1.6,11.4,1.6
	C416.1,92,417.7,90.1,416.8,88.7"/>
<path id="Fill-81_1_" class="st19" d="M416.8,88.7c0,0,5.7,3.4,4.9,12.8c-0.8,9.3-3,10.7-3,10.7s-1-10.4-6-14.4
	C407.8,93.7,414.9,87.4,416.8,88.7"/>
<path id="Stroke-85_1_" class="st20" d="M382.4,100.8l14.3,2.7c0,0,0.6,9.3-5.8,9.6c-6.5,0.4-5.6-10.7-5.6-10.7"/>
<path id="Fill-89_1_" class="st1" d="M256,427.1c0,0,0.4,3.8-6.5,3.8c-6.9,0-30.1-11.6-30.1-11.6s0,4.1,10.3,20.1l4-0.2
	c0,0-2.1-3.7,1-3.3c3,0.4,16.9,3.7,37.9-0.5v-3.6L256,427.1z"/>
<path id="Fill-91_1_" class="st0" d="M75.6,114c-25.1,25.1-28.2,65.3-14.3,104.8c10.4,29.5,26.9,26.6,33.3,57
	c7.4,6.3,5.7,9.6,8.4-1.8c2.7-11.4-16.1-61.3-24.5-81.7c-1.5-29.9,16.6-49.1,17.2-57.1C97.7,111.6,83,106.6,75.6,114"/>
<g id="Group-95_1_" transform="translate(0.000000, 51.711268)">
	<g id="Clip-94_1_">
	</g>
	<defs>
		<filter id="Adobe_OpacityMaskFilter_2_" filterUnits="userSpaceOnUse" x="37.9" y="55.2" width="61.3" height="125.6">
			<feColorMatrix  type="matrix" values="1 0 0 0 0  0 1 0 0 0  0 0 1 0 0  0 0 0 1 0"/>
		</filter>
	</defs>
	<mask maskUnits="userSpaceOnUse" x="37.9" y="55.2" width="61.3" height="125.6" id="mask-6_2_">
		<g class="st21">
			<polygon id="path-5_2_" class="st13" points="37.9,55.2 99.2,55.2 99.2,180.8 37.9,180.8 			"/>
		</g>
	</mask>
	<path id="Fill-93_1_" class="st22" d="M73.6,61.2c19.1-16.6,26.1,5,25.6,24.1c-0.5,19.1-15.8,21.6-19.3,41.4
		c-3.6,19.8,15.8,44,15.2,45.3c-0.6,1.3-57.1,8.9-57.1,8.9S38.1,92.1,73.6,61.2"/>
</g>
<path id="Fill-96_1_" class="st7" d="M101.7,39.7c13.4-9.4,21.9,10.7,31.8,12.9c0,0-1.1-23-19.2-23.5c-18-0.5-22.7,9.3-19.9,28.6
	C94.4,57.6,97.8,42.4,101.7,39.7"/>
<path id="Fill-98_1_" class="st0" d="M101.5,60.4c0,3.5-2.9,6.3-6.5,6.3s-6.5-2.8-6.5-6.3c0-3.5,2.9-6.3,6.5-6.3
	S101.5,56.9,101.5,60.4"/>
<polygon id="Fill-100_1_" class="st8" points="94.4,62.7 92.4,78.4 101.8,84.3 "/>
<path id="Fill-102_1_" class="st23" d="M303.3,53.6l-24.8,6.6l-3.1-39.4l37.7-10l2,26C315.9,44.5,310.8,51.6,303.3,53.6"/>
<path id="Fill-104_1_" class="st11" d="M333.8,93.8l-22.1,5.9c-6.5,1.7-12.9-2.8-13.4-9.5l-1.8-23.3l34.6-9.2L333.8,93.8z"/>
<path id="Fill-106_1_" class="st11" d="M288.5,113.1l-9.6,2.5c-6.5,1.7-12.9-2.8-13.4-9.5L264.7,96l22-5.8L288.5,113.1z"/>
<path id="Fill-108_1_" class="st11" d="M339.9,46.2l-13.4,3.5l-1.8-23l22-5.8l1.1,14.1C348.3,40.2,344.9,44.9,339.9,46.2"/>
<path id="Fill-110_1_" class="st23" d="M315.8,138.7l-16.6,4.4l-2.4-30.8l29.5-7.8l1.4,17.5C328.3,129.7,323.3,136.7,315.8,138.7"/>
<path id="Stroke-112_1_" class="st20" d="M420.3,105.8l-16.1-1.8c0,0-1.9,10.1,4,11c5.9,1,8.5-9.2,8.5-9.2"/>
<path id="Stroke-114_1_" class="st24" d="M396.8,105.4c0,0,3.6-2.4,6.9,0.5"/>
<polygon id="Fill-116_1_" class="st2" points="260,217.4 244.9,151 318.8,172.8 330.8,231.3 366,243.3 363.2,251.8 "/>
<path class="st25" d="M293.4,200.6c-0.9,0.5-2.1,0.9-3.4,0.9c-4.4,0-8.9-3.4-10.1-7.7c-1.2-4,1.3-7.7,5.6-7.7c3.2,0,6.6,1.9,8.6,4.6
	C291.2,192.2,290.7,198.5,293.4,200.6z"/>
<path class="st26" d="M299.3,197.6c-0.4,1-1,2.1-1.9,2.8c-0.9,0.7-2.1,1.1-3.1,0.7c-0.3-0.1-0.6-0.3-0.9-0.5
	c2.2-1.3,3.1-3.9,2.3-6.9c-0.3-1.1-0.9-2.1-1.6-3.1c0.1,0,0.1-0.1,0.1-0.1c1.4-0.7,3.1-0.3,4.3,0.8
	C300.3,193,300.2,195.5,299.3,197.6z"/>
<path class="st25" d="M286.2,182.8c0.3-0.5,0.6-0.9,1.2-1.2c0.6-0.3,1.3-0.8,1.6-0.6c0.7,0.9,0.8,2.2,0.2,3.2
	c-0.6,0.9-1.6,1.4-2.5,1.1C286,185,285.6,183.8,286.2,182.8z"/>
</svg>
