<?xml version="1.0" encoding="utf-8"?>
<!-- Generator: Adobe Illustrator 24.1.2, SVG Export Plug-In . SVG Version: 6.00 Build 0)  -->
<svg version="1.1" id="Layer_1" xmlns="http://www.w3.org/2000/svg" xmlns:xlink="http://www.w3.org/1999/xlink" x="0px" y="0px"
	 viewBox="0 0 350 278" style="enable-background:new 0 0 350 278;" xml:space="preserve">
<style type="text/css">
	.st0{fill-rule:evenodd;clip-rule:evenodd;fill:#B07242;}
	.st1{fill-rule:evenodd;clip-rule:evenodd;fill:#FFFFFF;}
	.st2{fill-rule:evenodd;clip-rule:evenodd;fill:#FF8000;}
	.st3{fill-rule:evenodd;clip-rule:evenodd;fill:#6B6D73;}
	.st4{fill-rule:evenodd;clip-rule:evenodd;fill:#052B46;}
	.st5{fill-rule:evenodd;clip-rule:evenodd;fill:#FDD2AF;}
	.st6{fill-rule:evenodd;clip-rule:evenodd;fill:#FACFAD;}
	.st7{fill-rule:evenodd;clip-rule:evenodd;fill:#9B5F3D;}
	.st8{fill-rule:evenodd;clip-rule:evenodd;fill:#4E2915;}
	.st9{fill-rule:evenodd;clip-rule:evenodd;fill:#FFCA00;}
	.st10{fill-rule:evenodd;clip-rule:evenodd;fill:#FFCD06;}
	.st11{fill-rule:evenodd;clip-rule:evenodd;fill:#A43423;}
	.st12{fill-rule:evenodd;clip-rule:evenodd;fill:#BABEC5;}
	.st13{filter:url(#Adobe_OpacityMaskFilter);}
	.st14{mask:url(#mask-2_1_);fill-rule:evenodd;clip-rule:evenodd;fill:#6B6D73;}
	.st15{fill-rule:evenodd;clip-rule:evenodd;fill:#FFFFFF;fill-opacity:0.1;}
	.st16{fill-rule:evenodd;clip-rule:evenodd;fill:#032B46;}
	.st17{filter:url(#Adobe_OpacityMaskFilter_1_);}
	.st18{mask:url(#mask-4_1_);fill-rule:evenodd;clip-rule:evenodd;fill:#BABEC5;}
	.st19{fill-rule:evenodd;clip-rule:evenodd;fill:#08081C;}
	.st20{fill:none;stroke:#1A1718;stroke-width:2.319;stroke-linecap:round;stroke-linejoin:round;}
	.st21{filter:url(#Adobe_OpacityMaskFilter_2_);}
	.st22{mask:url(#mask-6_1_);fill-rule:evenodd;clip-rule:evenodd;fill:#FFCA00;}
	.st23{fill-rule:evenodd;clip-rule:evenodd;fill:#62BB46;}
	.st24{fill-rule:evenodd;clip-rule:evenodd;fill:#0097E6;}
	.st25{fill-rule:evenodd;clip-rule:evenodd;fill:#0077C5;}
	.st26{fill:none;stroke:#1A1718;stroke-width:2.319;}
	.st27{fill-rule:evenodd;clip-rule:evenodd;fill:#9FA1A5;}
	.st28{fill-rule:evenodd;clip-rule:evenodd;fill:none;}
</style>
<g id="Group" transform="translate(929.000000, 102.000000)">
	<g id="Group-120" transform="translate(14.000000, 11.619873)">
		<path id="Fill-1" class="st0" d="M-865.2-56.7c8.5,6.9,13.3,16.7,21.9,14.3c8.6-2.5,18.1-20.3,18.1-20.3l6.8,4.9
			c0,0-2.8,27-24.3,31s-26.6-5.1-29.3-11.2S-873.5-63.4-865.2-56.7"/>
		<path id="Fill-3" class="st0" d="M-825.2-62.7c0,0,3.4-13.5,6.8-16c3.4-2.5,8.2-3,13.8-6.8c3.1,0.6-6.4,6.8-6.4,6.8l1.9,3.1
			c0,0-1.7,6-5.6,9.6c-2.7,2-3.8,8.7-3.8,8.7L-825.2-62.7z"/>
		<path id="Fill-5" class="st0" d="M-804.6-85.5c-5.6,3.8-10.4,4.3-13.8,6.8c-3.4,2.5-6.8,16-6.8,16s-9.5,17.8-18.1,20.3
			c-8.6,2.5-13.4-7.4-21.9-14.3c-8.4-6.7-9.6,12.5-6.9,18.6c2.8,6.1,7.8,15.2,29.3,11.2c20.7-3.9,24-29.1,24.2-30.9
			c0.3-1.5,1.4-6.6,3.7-8.3c3.9-3.6,5.6-9.6,5.6-9.6l-1.9-3.1C-811.1-78.7-801.5-84.9-804.6-85.5"/>
		<path id="Fill-7" class="st0" d="M-816.9-70.5c0,0,4.1-0.8,4.9-3.4c0.8-2.6,2.4-2.2,3.2-3.4c0.7-1.3,0.5-2.2,0.5-2.2
			s-5.2,1.2-7.3,5.2"/>
		<path id="Fill-9" class="st1" d="M-816.9-70.5c0,0,4.1-0.8,4.9-3.4c0.8-2.6,2.4-2.2,3.2-3.4c0.7-1.3,0.5-2.2,0.5-2.2
			s-5.2,1.2-7.3,5.2"/>
		<path id="Fill-11" class="st0" d="M-860.4,74.8c-6,5.1-10.4,13.9-10.4,13.9s4.6,9.6,6.4,15.4c0.6,1.9-16.6-13.6-14.3-16.8
			c4.7-6.5,10.7-21,10.7-21L-860.4,74.8z"/>
		<path id="Fill-13" class="st0" d="M-860.4,74.8c-6,5.1-10.4,13.9-10.4,13.9s4.6,9.6,6.4,15.4c0.6,1.9-16.6-13.6-14.3-16.8
			c4.7-6.5,10.7-21,10.7-21L-860.4,74.8z"/>
		<path id="Fill-15" class="st2" d="M-877.9,85.6c0,0,7.1,15.3,12.3,15.2c0,0,2.3,7.2,4.3,9l-2,0.5c0,0-7.1-2.5-12.2-13.6
			c-2.5-5.4-4.1-1.4-4.1-1.4l-2.2-2C-881.7,93.2-880.3,85.8-877.9,85.6"/>
		<path id="Fill-17" class="st3" d="M-759.7,106.2c0,0-5.3,35.7-0.8,36.5c4.5,0.8,13.1-25.7,14.5-30.9c1.4-5.2-9.6-11.2-9.6-11.2
			L-759.7,106.2z"/>
		<path id="Fill-19" class="st4" d="M-760.4,39.2c-9.1,1-32.1,15-32.6,21.5c-0.9,14.2,28.8,58.2,32.1,59.5
			c3.4,1.2,7.6-17.7,7.6-17.7s-17.1-23.7-14.9-27.1c2.1-3.4,33.2,0,41.1-16.9C-718.9,41.7-751.2,38.2-760.4,39.2"/>
		<path id="Fill-21" class="st4" d="M-760.4,39.2c-9.1,1-32.1,15-32.6,21.5c-0.9,14.2,28.8,58.2,32.1,59.5
			c3.4,1.2,7.6-17.7,7.6-17.7s-17.1-23.7-14.9-27.1c2.1-3.4,33.2,0,41.1-16.9C-718.9,41.7-751.2,38.2-760.4,39.2"/>
		<path id="Fill-23" class="st4" d="M-760.4,39.2c-9.1,1-32.1,15-32.6,21.5c-0.9,14.2,28.8,58.2,32.1,59.5
			c3.4,1.2,7.6-17.7,7.6-17.7s-17.1-23.7-14.9-27.1c2.1-3.4,33.2,0,41.1-16.9C-718.9,41.7-751.2,38.2-760.4,39.2"/>
		<path id="Fill-25" class="st5" d="M-750.6-25.6c-8.9-1.1-9.8,25.5-15.7,32.2c-5.8,6.8,10.4,9.5,14.4,4.6
			C-747.8,6.4-745.3-25-750.6-25.6"/>
		<path id="Fill-27" class="st5" d="M-784.7,8.7c10.3,0.5,18.3-1.3,20.8-3.6c2.5-2.4,11.9-1.1,13.4,4c1.4,5.1-5.4,10.1-8.5,10.7
			c-3.1,0.5-21.2-3.8-25.7-6.3C-789.2,10.9-784.7,8.7-784.7,8.7"/>
		<path id="Fill-29" class="st6" d="M-750.6,8.9c3.2-8.8,4.7-33.9,0-34.5c-8.8-1-9.8,24.8-15.5,32c-3.7,1.7-10.4,2.7-18.7,2.3
			c0,0-4.5,2.2,0,4.7c4.5,2.5,22.6,6.9,25.7,6.3c3.1-0.5,9.9-5.6,8.5-10.7C-750.5,9-750.6,9-750.6,8.9"/>
		<path id="Fill-31" class="st7" d="M-750.6,8.9c3.2-8.8,4.7-33.9,0-34.5c-8.8-1-9.8,24.8-15.5,32c-3.7,1.7-10.4,2.7-18.7,2.3
			c0,0-4.5,2.2,0,4.7c4.5,2.5,22.6,6.9,25.7,6.3c3.1-0.5,9.9-5.6,8.5-10.7C-750.5,9-750.6,9-750.6,8.9"/>
		<path id="Fill-33" class="st8" d="M-881.4-89.3c-6.5-7.3-20.4-4-23.4,9.2c-2.2,9.9-21.4,11.8-20,22.3c1.8,12.8,36.9,15,40.1,5.4
			C-881.4-62-881.4-89.3-881.4-89.3"/>
		<polygon id="Fill-35" class="st9" points="-880.8,-73.8 -876,-69.2 -878.3,-64.1 		"/>
		<path id="Fill-37" class="st0" d="M-837.1,108.7c0,0,3.3,3.7,6,9.5c2.7,5.8,12.8,7.3,15.6,7.4c5.4,0.3,4.8-2.2,4.8-2.2
			s-10.5-6.1-13.1-8.8c-2.6-2.7-5.7-8.3-5.7-8.3L-837.1,108.7z"/>
		<path id="Fill-39" class="st10" d="M-870.7,16.5c4.9,12.6,7.7,12,7.7,18.6c0,3.3-17.4,28.2-17.4,28.2s5.1,9.8,18.1,17
			c0,0,25.3-33.1,26.3-41.8c1.3-12-14.7-36.4-14.7-36.4L-870.7,16.5z"/>
		<path id="Fill-41" class="st11" d="M-870.9,16.5c4.9,12.6,7.7,12,7.7,18.6c0,3.3-17.4,28.2-17.4,28.2s5.1,9.8,18.1,17
			c0,0,25.3-33.1,26.3-41.8c1.3-12-14.7-36.4-14.7-36.4L-870.9,16.5z"/>
		<path id="Fill-43" class="st9" d="M-868.5-59.2c12.2,2.1,15.9,15.3,22.2,15.1c6.3-0.3,7.9-3,7.9-3l5.3,29.2c0,0-12.4,2.9-29.1-8
			C-878.9-37-882.7-61.6-868.5-59.2"/>
		<path id="Fill-45" class="st9" d="M-862.3-56.9c-1.8-1-3.8-1.9-6.2-2.3c-14.3-2.5-10.4,22.2,6.3,33.2c8,5.2,14.8,7.8,19.9,6.6
			L-862.3-56.9z"/>
		<path id="Fill-47" class="st12" d="M-762.9-1.8c3.4,4.1,12.1,6.8,17.1,7.7c1.5-10.7-1.4-31.1-4.8-31.5
			C-756.5-26.3-760.3-11.5-762.9-1.8"/>
		<g id="Group-51" transform="translate(119.766986, 232.609320)">
			<defs>
				<filter id="Adobe_OpacityMaskFilter" filterUnits="userSpaceOnUse" x="-928.9" y="-101.7" width="30.1" height="32.1">
					<feColorMatrix  type="matrix" values="1 0 0 0 0  0 1 0 0 0  0 0 1 0 0  0 0 0 1 0"/>
				</filter>
			</defs>
			<mask maskUnits="userSpaceOnUse" x="-928.9" y="-101.7" width="30.1" height="32.1" id="mask-2_1_">
				<g class="st13">
					<polygon id="path-1_1_" class="st1" points="-928.9,-101.7 -898.8,-101.7 -898.8,-69.6 -928.9,-69.6 					"/>
				</g>
			</mask>
			<path id="Fill-49" class="st14" d="M-910.1-99.3c0,0-23,27.2-18.1,29.5c4.9,2.3,28.7-19.6,29.4-23.4c0.7-3.8-3.8-9.7-5.8-8.3
				C-906.7-100.1-910.1-99.3-910.1-99.3"/>
		</g>
		<path id="Fill-52" class="st0" d="M-897.5-80.7c1.2-13.4,18.4-10.1,19.6-0.8c0.6,4.6,0,8.8-2.1,12.3c-1.7,2.9,0.8,5.9,1.4,7.3
			c1.2,2.8,5.5-0.6,6.4,2.8s2.4,19.8-6.2,21.6c-8.6,1.8-22-6-23.3-14.6l6.8-5.8C-894.9-57.8-898.7-67.2-897.5-80.7"/>
		<path id="Fill-54" class="st11" d="M-888.8,18.9c-4.1,7.7,13.3,24.3,20,51.3c5.5,22.3,3.1,33.4,17.8,42.8l23.5-4.4
			c0,0-12.9-11-17.7-47.7c-2.7-21.1-14.9-39.8-17.4-45.5C-867.9,2.8-881.1,4.5-888.8,18.9"/>
		<path id="Fill-56" class="st15" d="M-888.8,18.9c-4.1,7.7,13.3,24.3,20,51.3c5.5,22.3,3.1,33.4,17.8,42.8l23.5-4.4
			c0,0-12.9-11-17.7-47.7c-2.7-21.1-14.9-39.8-17.4-45.5C-867.9,2.8-881.1,4.5-888.8,18.9"/>
		<path id="Fill-58" class="st9" d="M-849.5,2.8c-1.1-6.3-10.4-17.8-7.1-35.9c0.8-4.6-2-16.7-8.2-23.6c-4.1-4.6-11.4-5.2-13.9-5.5
			c0,0.1,0.1,0.2,0.1,0.3c5.3,10.8,1.7,21.9,1.7,21.9c-5.8-8.9-16.3-14.2-18.5-17.5c-3.2,2-6.4,4.6-9.6,7.9
			c-7.9,8.1-9.2,18.6-1.3,37c5.2,12,12.5,17.8,11.3,34.2c0,0,19.4,4.1,34.2-3.9C-846.1,9.7-848.8,6.9-849.5,2.8"/>
		<path id="Fill-60" class="st9" d="M-883.4,22.6c-1.8-13.5-9.9-24.2-8.8-36.4c1.3-14.8-1.7-28.7-6.9-32.7
			c-3.2-2.4-12.4,10.9-12.4,10.9c-0.1,1.5-0.1,3.1,0,4.8l0,0c0.1,0.8,0.2,1.7,0.3,2.5c0,0,0,0.1,0,0.1c0.1,0.8,0.3,1.7,0.5,2.6
			c0,0.1,0,0.1,0,0.2c0.2,0.8,0.4,1.7,0.7,2.6c0,0.1,0.1,0.2,0.1,0.4c0.2,0.8,0.5,1.7,0.8,2.5c0.1,0.2,0.1,0.4,0.2,0.6
			c0.3,0.8,0.6,1.7,0.9,2.6c0.1,0.2,0.2,0.4,0.2,0.7c0.4,1.1,0.9,2.3,1.4,3.4c1,2.3,2,4.3,3.1,6.2c0.7,1.3,1.4,2.5,2.1,3.7
			c1.4,2.4,2.7,4.8,3.7,7.4c0.5,1.3,1,2.6,1.4,4.1c1,3.6,1.4,7.6,1,12.7C-895,21.6-890.1,22.6-883.4,22.6"/>
		<path id="Fill-62" class="st0" d="M-893.7,36.4c0.4,1.4,3.6,6.7,1.4,12.9c-2.4,6.6-6.6,8.2-7.1,7.3c-0.5-0.9,2-6.1,1.1-8.8
			c-0.7,4-2.1,5.9-2.1,5.9c-0.1-1.1,0.6-4.1,0.4-7c-0.2-3.4,0.7-8.5,1.7-9.8C-897.3,35.7-894.1,35-893.7,36.4"/>
		<path id="Fill-64" class="st4" d="M-735.5,47.8c-16.6,3-34.1,11.1-42.7,27.3c-8.6,16.3-12.3,57.7-14.4,59.6
			c-2.1,1.8,13.6-5.3,17.6-7.8c4-2.5,7.9-39.8,15-44.4c7.1-4.6,33.4,3.9,43.2-5.3c9.8-9.2,9-21.7,6.9-26.3
			C-712.2,46.3-728.8,46.6-735.5,47.8"/>
		<path id="Fill-66" class="st16" d="M-723.2,47.1c1.7,12.9-6,18.2-9.8,19.9c-4,1.8-27.8,8-32.2,11.2c-3.4,2.6-6.3,33.4-9.9,48.1
			c5-9.9,8.7-39.7,15-43.7c7.1-4.6,33.4,3.9,43.2-5.3c9.8-9.2,9-21.7,6.9-26.3C-711.3,48.3-717.1,47.2-723.2,47.1"/>
		<path id="Fill-68" class="st7" d="M-737.4-59.1c3.5-3.7,14.8-5.1,15.2,4.5c0.4,9.7-2.7,10.3-0.4,16.9c2.3,6.6,5.3,7.4,7.6,13.2
			c2.3,5.8-7.2,10.3-17.1,10.1c-9.9-0.2-19.1-9.9-15.2-13.6c3.9-3.7,7.7-4.6,10.6-8.5c0,0-3.4-1.4-3.8-5.7
			C-741-46.8-740.7-57.3-737.4-59.1"/>
		<path id="Fill-70" class="st12" d="M-706.5-20c-4.1-4.9-10.6-8.8-13.1-12.2c-1.6,4.6-6.6,9.7-13.5,8.4c-7.5-1.4-8.2-6.4-8.4-9.7
			c-2.3,2.5-7.4,1.9-12.1,8.7c-8.3,12,5.5,41.9,4.6,49.8c-0.9,8-13.2,4.9-12,12.9c1.2,8,43.6,31.9,51,12.9
			C-702.7,31.8-697.9-9.5-706.5-20"/>
		<path id="Fill-72" class="st12" d="M-725.3,38.2c1.4,4.3-7.8,11.9-13.3,16c11.9,4.8,24.7,6.3,28.5-3.4c6.7-17.3,11.3-53,5.6-67.3
			l-11.5-6C-727.6-14.7-727.2,32.2-725.3,38.2"/>
		<path id="Fill-74" class="st7" d="M-704.5-17c-6.8-9.2-11.7-5.8-12.6,0c-2.4,14.9,4.9,34.4,4.9,34.4s-24.7-9.1-29.9-9.4
			c-5.2-0.3-17.6,6.3-19.2,7.5c-0.4,0.3-0.1,0.7,1.7,0.2l-2.3,1.3c0,0,0.3,1.5,2.9,0.5c0,0,1,1,1.9,0.8c1.9-0.4,4.8-2.5,6.1-3.6
			l-3.9,5.2c1.1,0.3,3.8-1.5,5.8-3.3c6,1.2,8.8-2,8.8-2s23.7,20.5,34.5,17C-687.9,25.7-697.7-7.8-704.5-17"/>
		<g id="Group-78" transform="translate(208.968439, 77.910296)">
			<defs>
				<filter id="Adobe_OpacityMaskFilter_1_" filterUnits="userSpaceOnUse" x="-928.6" y="-101.8" width="24.5" height="35.1">
					<feColorMatrix  type="matrix" values="1 0 0 0 0  0 1 0 0 0  0 0 1 0 0  0 0 0 1 0"/>
				</filter>
			</defs>
			<mask maskUnits="userSpaceOnUse" x="-928.6" y="-101.8" width="24.5" height="35.1" id="mask-4_1_">
				<g class="st17">
					<polygon id="path-3_1_" class="st1" points="-928.6,-101.8 -904.1,-101.8 -904.1,-66.7 -928.6,-66.7 					"/>
				</g>
			</mask>
			<path id="Fill-76" class="st18" d="M-904.1-69c-1-10.6-5.9-23.3-11.8-29.1c-8.2-8-13.5-1.8-12.6,5.2c1.2,9.6,3.4,20,4.2,25.3
				C-920.1-66-910.4-66.4-904.1-69"/>
		</g>
		<path id="Fill-79" class="st19" d="M-724.4-59.9c-2.2-2.4-5-2.1-8-1.9c-2.8,0.2-5.2,2.7-5.1,2.8c0.2,0.5,2,0.8,6.1,0.8
			C-724.8-58.2-723.9-59.2-724.4-59.9"/>
		<path id="Fill-81" class="st19" d="M-724.4-59.9c0,0,3.1,1.9,2.7,6.9c-0.4,5-1.6,5.8-1.6,5.8s-0.5-5.6-3.2-7.8
			C-729.3-57.2-725.4-60.6-724.4-59.9"/>
		<path id="Stroke-85" class="st20" d="M-742.9-53.4l7.7,1.4c0,0,0.3,5-3.2,5.2c-3.5,0.2-3-5.8-3-5.8"/>
		<path id="Fill-89" class="st2" d="M-811.2,122.9c0,0,0.2,2-3.5,2c-3.7,0-16.3-6.3-16.3-6.3s0,2.2,5.5,10.8l2.2-0.1
			c0,0-1.1-2,0.5-1.8c1.6,0.2,9.1,2,20.4-0.3v-1.9L-811.2,122.9z"/>
		<path id="Fill-91" class="st0" d="M-908.7-46.3c-13.6,13.6-15.2,35.2-7.7,56.6c5.6,16,14.5,14.4,18,30.8c4,3.4,3.1,5.2,4.5-1
			c1.4-6.1-8.7-33.1-13.2-44.1c-0.8-16.2,8.9-26.5,9.3-30.8C-896.7-47.5-904.7-50.3-908.7-46.3"/>
		<g id="Group-95" transform="translate(0.000000, 51.711268)">
			<defs>
				<filter id="Adobe_OpacityMaskFilter_2_" filterUnits="userSpaceOnUse" x="-929" y="-101.8" width="33.1" height="67.8">
					<feColorMatrix  type="matrix" values="1 0 0 0 0  0 1 0 0 0  0 0 1 0 0  0 0 0 1 0"/>
				</filter>
			</defs>
			<mask maskUnits="userSpaceOnUse" x="-929" y="-101.8" width="33.1" height="67.8" id="mask-6_1_">
				<g class="st21">
					<polygon id="path-5_1_" class="st1" points="-929,-101.8 -895.9,-101.8 -895.9,-34 -929,-34 					"/>
				</g>
			</mask>
			<path id="Fill-93" class="st22" d="M-909.7-98.6c10.3-9,14.1,2.7,13.8,13c-0.3,10.3-8.5,11.6-10.4,22.3
				c-1.9,10.7,8.5,23.8,8.2,24.5C-898.5-38.1-929-34-929-34S-928.9-81.9-909.7-98.6"/>
		</g>
		<path id="Fill-96" class="st8" d="M-894.5-86.4c7.2-5.1,11.8,5.8,17.2,7c0,0-0.6-12.4-10.3-12.7c-9.7-0.3-12.3,5-10.8,15.4
			C-898.5-76.7-896.7-84.9-894.5-86.4"/>
		<path id="Fill-98" class="st0" d="M-894.6-75.2c0,1.9-1.6,3.4-3.5,3.4s-3.5-1.5-3.5-3.4s1.6-3.4,3.5-3.4S-894.6-77.1-894.6-75.2"
			/>
		<polygon id="Fill-100" class="st9" points="-898.5,-74 -899.6,-65.5 -894.5,-62.3 		"/>
		<path id="Fill-102" class="st23" d="M-785.6-78.9l-13.4,3.5l-1.7-21.3l20.4-5.4l1.1,14.1C-778.9-83.8-781.6-80-785.6-78.9"/>
		<path id="Fill-104" class="st24" d="M-769.2-57.2l-12,3.2c-3.5,0.9-7-1.5-7.3-5.1l-1-12.6l18.7-4.9L-769.2-57.2z"/>
		<path id="Fill-106" class="st25" d="M-793.7-46.7l-5.2,1.4c-3.5,0.9-7-1.5-7.3-5.1l-0.4-5.5l11.9-3.2L-793.7-46.7z"/>
		<path id="Fill-108" class="st25" d="M-765.9-82.9l-7.2,1.9l-1-12.4l11.9-3.2l0.6,7.6C-761.4-86.1-763.2-83.6-765.9-82.9"/>
		<path id="Fill-110" class="st23" d="M-778.9-32.9l-9,2.4l-1.3-16.7l16-4.2l0.7,9.4C-772.2-37.8-774.9-34-778.9-32.9"/>
		<path id="Stroke-112" class="st20" d="M-722.5-50.7l-8.7-1c0,0-1,5.4,2.2,6c3.2,0.5,4.6-5,4.6-5"/>
		<path id="Stroke-114" class="st26" d="M-735.2-50.9c0,0,1.9-1.3,3.8,0.3"/>
		<polygon id="Fill-116" class="st3" points="-809.1,9.6 -817.2,-26.3 -777.3,-14.5 -770.8,17.1 -751.8,23.5 -753.3,28.2 		"/>
		<path class="st27" d="M-791,0.5c-0.5,0.3-1.1,0.5-1.8,0.5c-2.3,0-4.8-1.9-5.5-4.2c-0.7-2.2,0.7-4.2,3-4.2c1.8,0,3.6,1,4.6,2.5
			C-792.2-4-792.5-0.6-791,0.5z"/>
	</g>
</g>
<path class="st28" d="M155.2,112.5c-0.2,0.6-0.5,1.1-1,1.5c-0.5,0.4-1.1,0.6-1.7,0.4c-0.2-0.1-0.3-0.2-0.5-0.3
	c1.2-0.7,1.7-2.1,1.2-3.7c-0.2-0.6-0.5-1.2-0.9-1.7c0,0,0,0,0.1,0c0.8-0.4,1.7-0.2,2.3,0.4C155.7,110,155.7,111.4,155.2,112.5z"/>
<path class="st27" d="M148.1,104.5c0.2-0.3,0.3-0.5,0.6-0.7c0.3-0.2,0.7-0.4,0.9-0.3c0.4,0.5,0.4,1.2,0.1,1.7
	c-0.3,0.5-0.9,0.7-1.3,0.6C148,105.7,147.8,105.1,148.1,104.5z"/>
</svg>
